<svg xmlns="http://www.w3.org/2000/svg" viewBox="0 0 1100 620" role="img" aria-labelledby="t d">
<title id="t">NS-M02 防災子局・推定可聴範囲図</title><desc id="d">鳴代市の防災子局と地形から推定した可聴範囲。証言地点は範囲外にも存在する。</desc>
<defs><pattern id="grid" width="25" height="25" patternUnits="userSpaceOnUse"><path d="M25 0H0V25" fill="none" stroke="#8ea0a2" stroke-opacity=".16"/></pattern><filter id="rough"><feTurbulence baseFrequency=".02" numOctaves="2" result="n"/><feDisplacementMap in="SourceGraphic" in2="n" scale="3"/></filter></defs>
<rect width="1100" height="620" fill="#e9e7dc"/><rect width="1100" height="620" fill="url(#grid)"/>
<path d="M0 515C150 470 275 565 420 512S690 455 820 502s190 21 280-10v128H0z" fill="#9dbbc0" opacity=".65"/><text x="865" y="570" fill="#41656d" font-size="20">鳴代湖</text>
<g fill="none" stroke="#a39b7d" stroke-width="2" opacity=".6"><path d="M65 110q160-80 300 18T665 98"/><path d="M25 155q165-78 315 15t295 5"/><path d="M110 245q120-65 245 12t240 10"/></g>
<g filter="url(#rough)" opacity=".24"><path d="M925 425c-88-48-172-22-205 58 45 58 174 64 250 12 27-19 5-51-45-70z" fill="#286c91"/><path d="M430 410c-105-72-220-12-198 88 69 46 209 37 268-27 19-21-15-42-70-61z" fill="#447f77"/><path d="M350 438c-89-63-178-13-166 72 54 55 178 47 230-3 28-27-5-51-64-69z" fill="#846b99"/><path d="M244 330c-93-67-176-10-175 77 57 44 177 32 224-27 20-25-1-38-49-50z" fill="#a36d43"/><path d="M298 185c-69-58-151-12-143 74 51 43 151 27 190-33 14-22-3-30-47-41z" fill="#874c52"/></g>
<path d="M160 65l240 0-48 190-212 45z" fill="#3f4443" opacity=".13" stroke="#4d4c47" stroke-dasharray="8 7"/><text x="178" y="92" font-size="16" fill="#555">山稜による推定遮蔽域</text>
<g font-family="sans-serif" font-size="14"><g fill="#fff" stroke="#263c43" stroke-width="3"><circle cx="925" cy="425" r="10"/><circle cx="430" cy="410" r="10"/><circle cx="350" cy="438" r="10"/><circle cx="244" cy="330" r="10"/><circle cx="298" cy="185" r="10"/></g>
<g fill="#25383c" font-weight="700"><text x="942" y="421">K-12</text><text x="445" y="405">N-07</text><text x="362" y="458">N-05</text><text x="258" y="325">N-04</text><text x="312" y="180">旧N-03</text></g>
<path d="M118 122l8 8m0-8-8 8" stroke="#b13535" stroke-width="4"/><text x="136" y="132" fill="#8c2525">証言地点 T-04</text><text x="136" y="153" fill="#555">通常推定範囲外／録音なし</text></g>
<g font-family="sans-serif"><text x="48" y="48" font-size="25" font-weight="700" fill="#26383b">防災子局・推定可聴範囲図</text><text x="48" y="75" font-size="14" fill="#59686a">設備台帳・標高データによる概算。気象、建物、聴取者の位置は未補正。</text><rect x="720" y="40" width="330" height="92" rx="4" fill="#f7f5eb" stroke="#777"/><text x="740" y="67" font-weight="700">凡例</text><circle cx="746" cy="92" r="7" fill="#fff" stroke="#263c43" stroke-width="2"/><text x="762" y="97">屋外拡声子局</text><rect x="880" y="85" width="25" height="15" fill="#447f77" opacity=".35"/><text x="914" y="97">推定可聴域</text><text x="1050" y="588" text-anchor="end" font-size="12" fill="#555">NS-M02 / 調査用図版 v1.0　※「聞こえた内容」の真偽を示す図ではない</text></g>
</svg>
