<svg xmlns="http://www.w3.org/2000/svg" viewBox="0 0 1100 620" role="img" aria-labelledby="t d"><title id="t">NS-M04 2026年祭礼・失踪経路比較図</title><desc id="d">現行祭礼順路、子局作動順、相原紗季の確認地点と未確認区間を比較する。</desc>
<defs><marker id="arr" markerWidth="8" markerHeight="8" refX="7" refY="4" orient="auto"><path d="M0 0l8 4-8 4z" fill="#b13a32"/></marker><marker id="blue" markerWidth="8" markerHeight="8" refX="7" refY="4" orient="auto"><path d="M0 0l8 4-8 4z" fill="#315f88"/></marker></defs>
<rect width="1100" height="620" fill="#eeeadd"/><path d="M0 500c180-48 305 45 460 7s320-58 455-6 140 12 185-8v127H0z" fill="#a6c3c6"/><g fill="none" stroke="#b7ad8f" stroke-width="2"><path d="M70 145q160-100 320 18t290 10"/><path d="M30 195q180-92 340 20t310 13"/><path d="M110 270q150-70 300 15t290 5"/></g>
<path d="M288 418C430 470 590 490 735 455S860 420 887 396" fill="none" stroke="#315f88" stroke-width="10" opacity=".18"/><path d="M288 418C430 470 590 490 735 455S860 420 887 396" fill="none" stroke="#315f88" stroke-width="3" marker-end="url(#blue)"/><text x="550" y="500" fill="#315f88" font-size="16">現行「声送り」公開順路</text>
<path d="M430 410L350 438L244 330L298 185" fill="none" stroke="#b13a32" stroke-width="4" stroke-dasharray="12 7" marker-end="url(#arr)"/><g fill="#b13a32" font-family="sans-serif" font-size="13"><circle cx="430" cy="410" r="7"/><text x="442" y="395">18:06 N-07</text><circle cx="350" cy="438" r="7"/><text x="365" y="458">18:12 N-05</text><circle cx="244" cy="330" r="7"/><text x="258" y="350">18:18 N-04</text><circle cx="298" cy="185" r="7"/><text x="312" y="179">18:24 旧N-03</text></g>
<path d="M596 387C510 399 470 406 430 410" fill="none" stroke="#333" stroke-width="5"/><path d="M430 410L350 438L244 330" fill="none" stroke="#333" stroke-width="5" stroke-dasharray="3 10"/><path d="M244 330L298 185" fill="none" stroke="#333" stroke-width="8" stroke-dasharray="1 13" opacity=".35"/><g font-family="sans-serif"><circle cx="596" cy="387" r="9" fill="#fff" stroke="#222" stroke-width="3"/><text x="610" y="382" font-weight="700">市役所（最終勤務確認）</text><path d="M238 324l12 12m0-12-12 12" stroke="#111" stroke-width="4"/><text x="85" y="314" font-weight="700">携帯端末・最終接続</text><rect x="278" y="164" width="40" height="40" fill="none" stroke="#b13a32" stroke-width="2"/><text x="325" y="205">点検坑入口</text>
<text x="46" y="47" font-size="25" font-weight="700" fill="#26383b">2026年 祭礼・失踪経路比較図</text><text x="46" y="75" font-size="14" fill="#59686a">確認記録を実線、端末情報からの推定を点線、子局作動順を赤破線で表示。</text><rect x="720" y="38" width="334" height="112" fill="#faf8ef" stroke="#777"/><text x="738" y="63" font-weight="700">読図上の注意</text><text x="738" y="88">現行祭礼は旧N-03へ入らない。</text><text x="738" y="110">作動順と移動順が一致するとは限らない。</text><text x="738" y="132">18:18以降の本人位置は確定していない。</text><text x="40" y="590" font-size="12" fill="#555">NS-M04 / 捜索資料再構成 v1.0　作成：北嶺日報・水城遼</text></g></svg>
