<svg xmlns="http://www.w3.org/2000/svg" viewBox="0 0 1200 760" role="img" aria-labelledby="t d">
<title id="t">1989年鳴沢避難事故・経路図</title><desc id="d">第一避難指示と変更後経路、沢道橋の通行不能、旧第二集合所、旧採石場、土砂崩れ範囲を示す。</desc>
<defs><style>.tx{font-family:"Yu Gothic","Hiragino Kaku Gothic ProN",sans-serif;fill:#293234}.sm{font-size:15px}.md{font-size:20px;font-weight:700}.tiny{font-size:13px}.cont{fill:none;stroke:#aaa99f;stroke-width:1}.road{fill:none;stroke:#5e6665;stroke-width:5;stroke-linecap:round}.first{fill:none;stroke:#315b68;stroke-width:6;marker-end:url(#arrow)}.changed{fill:none;stroke:#93483e;stroke-width:6;stroke-dasharray:12 8;marker-end:url(#arrowRed)}.unknown{fill:none;stroke:#93483e;stroke-width:5;stroke-dasharray:3 10}.point{fill:#315b68;stroke:#efede4;stroke-width:3}.risk{fill:#a05a4d;opacity:.2;stroke:#93483e;stroke-width:2}.box{fill:#f2efe5;stroke:#69706f}</style><marker id="arrow" markerWidth="10" markerHeight="10" refX="8" refY="3" orient="auto"><path d="M0 0L8 3 0 6Z" fill="#315b68"/></marker><marker id="arrowRed" markerWidth="10" markerHeight="10" refX="8" refY="3" orient="auto"><path d="M0 0L8 3 0 6Z" fill="#93483e"/></marker><pattern id="rain" width="12" height="12" patternUnits="userSpaceOnUse" patternTransform="rotate(20)"><path d="M0 0V12" stroke="#71898c" stroke-width="2" opacity=".16"/></pattern></defs>
<rect width="1200" height="760" fill="#e9e6dc"/><rect x="28" y="28" width="1144" height="704" fill="url(#rain)" stroke="#3e4646" stroke-width="2"/>
<path class="cont" d="M48 115C181 37 386 66 471 178S497 394 334 477 107 475 48 411"/><path class="cont" d="M66 164C197 92 338 105 411 194S420 352 294 422 110 420 61 362"/><path class="cont" d="M674 70C789 157 887 157 1138 81"/><path class="cont" d="M749 545C900 481 1052 513 1148 590"/>
<path class="road" d="M108 653C231 589 301 519 356 460 450 359 555 340 676 323 784 308 865 306 959 326"/><path d="M356 460C332 400 320 328 350 260 375 202 422 155 474 116" class="road" stroke-width="3"/><path d="M354 459C299 440 251 407 218 361 187 318 172 264 194 221 216 180 257 150 296 134" class="road" stroke-width="3"/>
<path class="first" d="M548 361C508 382 471 403 420 424 390 436 371 445 356 460 339 480 316 505 287 531"/><text x="409" y="390" class="tx sm" transform="rotate(-22 409 390)">第一指示：鳴沢公民館へ</text>
<path class="changed" d="M548 361C492 383 437 410 356 460 329 444 280 418 233 369 190 324 177 270 194 221"/><path class="unknown" d="M194 221C210 184 255 151 296 134"/><text x="237" y="323" class="tx sm" fill="#93483e" transform="rotate(-48 237 323)">第二指示後の移動</text>
<ellipse cx="270" cy="172" rx="107" ry="67" class="risk" transform="rotate(-24 270 172)"/><path d="M199 128l116 92M225 104l113 90M176 157l110 91" stroke="#93483e" stroke-width="3" opacity=".48"/><text x="144" y="110" class="tx md" fill="#93483e">土砂崩れ範囲</text>
<circle cx="548" cy="361" r="9" class="point"/><text x="563" y="352" class="tx md">上道分岐</text><circle cx="356" cy="460" r="9" fill="#93483e" stroke="#efede4" stroke-width="3"/><text x="371" y="488" class="tx md">沢道橋</text><text x="371" y="510" class="tx sm" fill="#93483e">17:52 通行不能</text><circle cx="233" cy="369" r="9" class="point"/><text x="110" y="396" class="tx md">旧第二集合所</text><circle cx="296" cy="134" r="9" fill="#93483e" stroke="#efede4" stroke-width="3"/><text x="318" y="128" class="tx md">旧採石場</text><circle cx="287" cy="531" r="9" class="point"/><text x="169" y="561" class="tx md">鳴沢公民館</text>
<rect x="760" y="58" width="365" height="170" class="box"/><text x="783" y="86" class="tx md">避難放送</text><text x="783" y="117" class="tx sm">18:07　第一指示</text><text x="807" y="141" class="tx tiny">鳴沢公民館へ集合</text><text x="783" y="172" class="tx sm" fill="#93483e">18:19　第二指示</text><text x="807" y="196" class="tx tiny">旧第二集合所方面へ――</text>
<rect x="777" y="580" width="335" height="107" class="box"/><line x1="799" y1="611" x2="859" y2="611" class="first"/><text x="881" y="616" class="tx tiny">第一指示経路</text><line x1="799" y1="642" x2="859" y2="642" class="changed"/><text x="881" y="647" class="tx tiny">変更後・確認区間</text><line x1="799" y1="671" x2="859" y2="671" class="unknown"/><text x="881" y="676" class="tx tiny">推定区間</text>
<text x="58" y="704" class="tx tiny">平成元年度「鳴沢地区豪雨災害に係る避難事故報告書」別紙二を基に再作成</text>
</svg>
