<svg xmlns="http://www.w3.org/2000/svg" viewBox="0 0 1280 720" role="img" aria-labelledby="t d"><title id="t">三録音同期比較図</title><desc id="d">資料A、B、Cの波形を同一時間軸に補正し、定時チャイム、車両音、犬声、金属打音、27秒の人声様成分を示す。</desc><defs><style>.tx{font-family:"Yu Gothic","Hiragino Kaku Gothic ProN",sans-serif;fill:#d9dfdc}.mono{font-family:ui-monospace,monospace}.sm{font-size:14px}.md{font-size:18px;font-weight:700}.grid{stroke:#354247;stroke-width:1}.wave{fill:none;stroke:#75b8b2;stroke-width:2}.wave2{fill:none;stroke:#d0a455;stroke-width:2}.wave3{fill:none;stroke:#c36b63;stroke-width:2}.event{stroke:#849297;stroke-width:1;stroke-dasharray:4 5}.band{fill:#6c4f56;opacity:.18;stroke:#9b7078}.labelbox{fill:#172126;stroke:#354247}</style><clipPath id="plot"><rect x="150" y="100" width="1050" height="500"/></clipPath></defs><rect width="1280" height="720" fill="#0c1215"/><rect x="40" y="38" width="1200" height="642" rx="4" fill="#111a1e" stroke="#354247"/><text x="70" y="76" class="tx md">TOA-26-184 / 三録音・環境音同期比較</text><text x="1170" y="76" class="tx sm mono" text-anchor="end">補正基準 t=0.000</text>
<g clip-path="url(#plot)"><g class="grid"><path d="M150 100V600M255 100V600M360 100V600M465 100V600M570 100V600M675 100V600M780 100V600M885 100V600M990 100V600M1095 100V600M1200 100V600"/><path d="M150 170H1200M150 330H1200M150 490H1200"/></g><rect x="523" y="100" width="565" height="500" class="band"/><text x="536" y="123" class="tx sm">人声様成分（約27秒）</text>
<path class="wave" d="M150 170l20-2 14 3 16-2 17 1 13-3 20 2 12-1 16 2 9-3 16 3 12-2 18 2 10-1 15 3 9-2 13 2 10-3 12 5 8-3 9 2 8-1 9 4 6-8 7 11 6-13 7 17 7-12 8 6 9-3 10 2 12-1 14 2 16-2 18 1 19-3 21 4 13-2 16 3 14-5 10 8 8-10 7 14 8-9 9 5 10-2 12 3 12-3 14 2 15-1 17 3 19-2 20 1 18-2 16 2 14-1 12 1 11-2 10 3 9-1 8 2 7-2 8 1 9-1 10 1 12-1 14 2 15-2 17 1 18-1 20 1 22-1"/>
<path class="wave2" d="M150 330l18-2 14 3 18-2 15 2 14-3 18 2 13-1 15 2 10-2 14 2 13-2 17 2 11-1 14 2 10-2 12 1 11-3 11 5 8-4 8 3 9-2 8 5 7-9 7 12 6-14 7 18 7-13 8 7 10-4 10 3 12-2 14 3 16-3 17 2 18-3 20 4 14-3 15 4 14-6 10 9 8-12 8 15 8-10 9 6 10-3 11 4 13-4 14 3 15-2 17 4 18-3 20 2 19-3 17 3 15-2 13 2 12-3 10 4 9-2 8 3 8-3 8 2 9-2 11 2 12-2 14 3 16-3 18 2 19-2 21 2"/>
<path class="wave3" d="M150 490l19-2 15 3 17-2 16 2 13-3 19 2 12-1 16 2 10-2 15 2 12-2 18 2 10-1 15 2 9-2 13 1 10-3 12 5 8-4 9 3 8-2 9 5 6-9 7 12 6-14 7 18 7-13 8 7 9-4 10 3 11-2 14 3 16-3 18 2 19-3 21 4 13-3 16 4 14-6 10 9 8-12 7 0 8 0 9 0 10 0 12 4 12-4 15 3 16-2 18 4 19-3 20 2 18-3 16 3 14-2 12 2 11-3 10 4 9-2 8 3 7-3 8 2 9-2 10 2 12-2 14 3 15-3 17 2 18-2 20 2 22-2"/>
<g class="event"><path d="M210 100V600"/><path d="M328 100V600"/><path d="M408 100V600"/><path d="M470 100V600"/><path d="M520 100V600"/><path d="M790 100V600"/><path d="M870 100V600"/></g></g>
<text x="70" y="176" class="tx md">A</text><text x="95" y="176" class="tx sm mono">相原</text><text x="70" y="336" class="tx md">B</text><text x="95" y="336" class="tx sm mono">湖東台</text><text x="70" y="496" class="tx md">C</text><text x="95" y="496" class="tx sm mono">鳴沢</text>
<text x="192" y="625" class="tx sm">チャイム終止</text><text x="310" y="650" class="tx sm">車両</text><text x="394" y="625" class="tx sm">犬①</text><text x="455" y="650" class="tx sm">犬②</text><text x="503" y="625" class="tx sm">金属①</text><text x="770" y="650" class="tx sm">金属②</text><text x="845" y="625" class="tx sm">区間終端</text><text x="150" y="665" class="tx sm mono">0s</text><text x="390" y="665" class="tx sm mono">10s</text><text x="630" y="665" class="tx sm mono">20s</text><text x="870" y="665" class="tx sm mono">30s</text><text x="1110" y="665" class="tx sm mono">40s</text></svg>
